{"title":"Nebraska 720p BluRay x264 WiKi DUAL KALAZANS","uid":10451251,"size":5020215500,"categoryP":"video","categoryS":"hd___movies","magnet":"?xt=urn:btih:002caa7d455f8b137b08dd8d69fa438a1aae6d47&amp;dn=Nebraska+720p+BluRay+x264+WiKi+DUAL+KALAZANS&amp;tr=udp%3A%2F%2Ftracker.openbittorrent.com%3A80&amp;tr=udp%3A%2F%2Fopen.demonii.com%3A1337&amp;tr=udp%3A%2F%2Ftracker.coppersurfer.tk%3A6969&amp;tr=udp%3A%2F%2Fexodus.desync.com%3A6969","seeders":1,"leechers":0,"uploader":"Alemao99","files":5,"time":1404023652,"description":"Woody Grant (Bruce Dern) is an old man who believes he won $ 1 million after receiving the mail an advertisement. Decided to withdraw the award, he decides to walk to the distant city of Lincoln, Nebraska. Realizing that the stubbornness of the father will travel anyway, his son David (Will Forte) decides to take him away. Only in the way that Woody has an accident and hits her head, needing rest. David decides to change plans a bit, spending the weekend at the home of one of his uncles before leaving for Lincoln. Only Woody tells everyone about the possibility of becoming a millionaire, arousing greed not only the family but also to the inhabitants of the city. \n\nOriginal title: Nebraska \nDirected by: Alexander Payne \nYear of Production: 2013 \nRelease Date in Brazil: 2014 \nDuration: 1 hour and 54 minutes \nGenre: Adventure | Drama \nImdb: http://www.imdb.com/title/tt1821549/ \n\nSize: 4.68 GB \nFile Extension: MKV \nVideo Quality: Blu-Ray \nVideo codec: H.264 / AVC \nAudio Codec: AC3\nResolution: 1280 x 534 \nAudio Language: Portuguese / English \nSubtitles: Portuguese\n\n\nFormat                                   : Matroska\nFormat version                           : Version 2\nFile size                                : 4.68 GiB\nDuration                                 : 1h 54mn\nOverall bit rate                         : 5 834 Kbps\nMovie name                               : Jubowo @ WiKi\nEncoded date                             : UTC 2014-06-17 13:24:53\nWriting application                      : mkvmerge v5.2.1 ('A Far Off Place') built on Jan  2 2012 23:21:10\nWriting library                          : libebml v1.2.3 + libmatroska v1.3.0\n\nVideo\nID                                       : 1\nFormat                                   : AVC\nFormat/Info                              : Advanced Video Codec\nFormat profile                           : &lt;a class=&quot;__cf_email__&quot; href=&quot;/cdn-cgi/l/email-protection&quot; data-cfemail=&quot;0b43626c634b473f253a&quot;&gt;[email&amp;#160;protected]&lt;/a&gt;&lt;script cf-hash='f9e31' type=&quot;text/javascript&quot;&gt;\n/* &lt;![CDATA[ */!function(){try{var t=&quot;currentScript&quot;in document?document.currentScript:function(){for(var t=document.getElementsByTagName(&quot;script&quot;),e=t.length;e--;)if(t[e].getAttribute(&quot;cf-hash&quot;))return t[e]}();if(t&amp;&amp;t.previousSibling){var e,r,n,i,c=t.previousSibling,a=c.getAttribute(&quot;data-cfemail&quot;);if(a){for(e=&quot;&quot;,r=parseInt(a.substr(0,2),16),n=2;a.length-n;n+=2)i=parseInt(a.substr(n,2),16)^r,e+=String.fromCharCode(i);e=document.createTextNode(e),c.parentNode.replaceChild(e,c)}}}catch(u){}}();/* ]]&gt; */&lt;/script&gt;\nFormat settings, CABAC                   : Yes\nFormat settings, ReFrames                : 12 frames\nMuxing mode                              : Header stripping\nCodec ID                                 : V_MPEG4/ISO/AVC\nDuration                                 : 1h 54mn\nBit rate                                 : 4 810 Kbps\nWidth                                    : 1 280 pixels\nHeight                                   : 534 pixels\nDisplay aspect ratio                     : 2.40:1\nFrame rate                               : 23.976 fps\nColor space                              : YUV\nChroma subsampling                       : 4:2:0\nBit depth                                : 8 bits\nScan type                                : Progressive\nBits/(Pixel*Frame)                       : 0.294\nStream size                              : 3.76 GiB (80%)\nTitle                                    : Nebraska.2013.720p.BluRay.x264-WiKi.DUAL-KALAZANS\nWriting library                          : x264 core 129 r2245+704+36 8e61944 tMod+MixAQ [8-bit@4:2:0 X86]\nEncoding settings                        : cabac=1 / ref=12 / deblock=1:-2:-2 / analyse=0x3:0x133 / me=umh / subme=11 / psy=1 / fade_compensate=0.00 / psy_rd=1.05:0.10 / mixed_ref=1 / me_range=32 / chroma_me=0 / trellis=2 / 8x8dct=1 / cqm=0 / deadzone=21,11 / fast_pskip=0 / chroma_qp_offset=-3 / threads=18 / lookahead_threads=3 / sliced_threads=0 / nr=0 / decimate=0 / interlaced=0 / bluray_compat=0 / constrained_intra=0 / fgo=0 / bframes=8 / b_pyramid=2 / b_adapt=2 / b_bias=0 / direct=3 / weightb=1 / open_gop=0 / weightp=2 / keyint=250 / keyint_min=23 / scenecut=40 / intra_refresh=0 / rc_lookahead=80 / rc=2pass / mbtree=1 / bitrate=4810 / ratetol=1.0 / qcomp=0.70 / qpmin=0 / qpmax=69 / qpstep=4 / cplxblur=20.0 / qblur=0.5 / ip_ratio=1.40 / aq=3 / aq-strength=0.80 / aq-sensitivity=10.00 / aq-ifactor=1.00 / aq-pfactor=1.00 / aq-bfactor=1.00 / aq2=0\nLanguage                                 : English\nDefault                                  : Yes\nForced                                   : No\n\nAudio #1\nID                                       : 2\nFormat                                   : AC-3\nFormat/Info                              : Audio Coding 3\nMode extension                           : CM (complete main)\nFormat settings, Endianness              : Big\nMuxing mode                              : Header stripping\nCodec ID                                 : A_AC3\nDuration                                 : 1h 54mn\nBit rate mode                            : Constant\nBit rate                                 : 384 Kbps\nChannel(s)                               : 3 channels\nChannel positions                        : Front: L C R\nSampling rate                            : 48.0 KHz\nBit depth                                : 16 bits\nCompression mode                         : Lossy\nStream size                              : 315 MiB (7%)\nTitle                                    : AC3 - KALAZANS\nLanguage                                 : Portuguese\nDefault                                  : Yes\nForced                                   : No\n\nAudio #2\nID                                       : 3\nFormat                                   : AC-3\nFormat/Info                              : Audio Coding 3\nMode extension                           : CM (complete main)\nFormat settings, Endianness              : Big\nMuxing mode                              : Header stripping\nCodec ID                                 : A_AC3\nDuration                                 : 1h 54mn\nBit rate mode                            : Constant\nBit rate                                 : 640 Kbps\nChannel(s)                               : 3 channels\nChannel positions                        : Front: L R,   Side: C\nSampling rate                            : 48.0 KHz\nBit depth                                : 16 bits\nCompression mode                         : Lossy\nStream size                              : 525 MiB (11%)\nTitle                                    : AC3 - KALAZANS\nLanguage                                 : English\nDefault                                  : No\nForced                                   : No\n\n\n\nSEED PLEASE\n\nENJOY...","torrent":{"xt":"urn:btih:002caa7d455f8b137b08dd8d69fa438a1aae6d47","amp;dn":"Nebraska+720p+BluRay+x264+WiKi+DUAL+KALAZANS","amp;tr":["udp%3A%2F%2Ftracker.openbittorrent.com%3A80","udp%3A%2F%2Fopen.demonii.com%3A1337","udp%3A%2F%2Ftracker.coppersurfer.tk%3A6969","udp%3A%2F%2Fexodus.desync.com%3A6969"],"infoHash":"002caa7d455f8b137b08dd8d69fa438a1aae6d47","infoHashBuffer":{"type":"Buffer","data":[0,44,170,125,69,95,139,19,123,8,221,141,105,250,67,138,26,174,109,71]},"announce":[],"urlList":[]}}